<?xml version="1.0" encoding="utf-8"?>
<!-- Generator: Adobe Illustrator 27.5.0, SVG Export Plug-In . SVG Version: 6.00 Build 0)  -->
<svg version="1.1" id="Layer_1" xmlns="http://www.w3.org/2000/svg" xmlns:xlink="http://www.w3.org/1999/xlink" x="0px" y="0px"
	 viewBox="0 0 2000 2000" style="enable-background:new 0 0 2000 2000;" xml:space="preserve">
<style type="text/css">
	.st0{fill:#BFBB51;}
</style>
<path class="st0" d="M1036,1817c1.6,0.8,1.6,0.8,3.3,1.5c7.7,3.6,14.2,7.9,20.7,13.5c0.8,0.7,1.7,1.3,2.6,2c2.3,1.9,4.2,3.8,6.1,6
	c0.6,0.7,1.1,1.3,1.7,2c0.5,0.7,1.1,1.3,1.6,2c0.6,0.7,1.1,1.4,1.7,2.1c1.3,1.9,1.3,1.9,1.3,4.9c0.7,0,1.3,0,2,0
	c14.4,22.8,19.8,48.9,13.9,75.4c-1,4-2.3,7.6-4,11.4c-0.9,2.1-1.5,4.2-2.1,6.4c-6.4,19.8-26.5,37.8-44.5,47.2
	c-2.4,1-4.9,1.8-7.4,2.6c-1.2,0.4-2.5,0.9-3.8,1.3c-10.1,3.5-18.7,4.9-29.5,5c-1.4,0-2.8,0-4.2,0.1c-10.5,0.2-19.5-1.1-29.5-4.4
	c-0.8-0.3-1.6-0.5-2.5-0.8c-23.7-7.8-42-26.7-53.4-48.4c-12-24.3-11.3-52.6-2.9-77.8c1.9-5.1,4.8-9.5,7.8-14
	c0.6-1.2,1.2-2.3,1.8-3.5c10.8-18.6,32.6-34,53.2-39.5c4.3-0.9,8.6-1.5,13-2c1-0.1,1.9-0.3,2.9-0.4
	C1002.3,1807.9,1021.3,1809.3,1036,1817z"/>
<path class="st0" d="M1902.5,905.6c2.1,0,4.1,0,6.2-0.1c13.2-0.1,24.9,2.9,36.8,8.4c1.1,0.5,1.1,0.5,2.2,1c4.4,2,8.4,4.1,12.2,7
	c0,0.7,0,1.3,0,2c0.7,0.2,1.4,0.5,2.2,0.8c5.3,2.3,8.3,5.8,11.8,10.2c0.8,0.7,1.7,1.3,2.6,2c2.6,2.1,3.9,4,5.4,7c0,0.7,0,1.3,0,2
	c1,0.3,2,0.7,3,1c1.4,2.3,2.6,4.6,3.8,7.1c0.3,0.7,0.7,1.4,1.1,2.1c6.7,14,10.3,26.3,10.4,41.9c0,1.5,0,3,0.1,4.5
	c0.3,14.2-2.1,26.5-8,39.5c-0.3,0.7-0.7,1.5-1,2.3c-4.9,10.3-12,18.8-20.4,26.6c-0.6,0.6-1.2,1.2-1.8,1.9
	c-16.8,16.2-39.6,23.9-62.6,24.1c-5.2-0.1-10.4-0.5-15.6-1c-1.1-0.1-2.3-0.2-3.4-0.3c-24.8-2.8-45.9-19.3-61.1-38.1
	c-16.2-22.3-19.7-49.7-15.6-76.6c1.4-7.4,3.8-14.2,7.2-21c0.8-1.6,0.8-1.6,1.6-3.2c6.5-12.8,16.6-26.6,29.4-33.8c0.7,0,1.3,0,2,0
	c0-0.7,0-1.3,0-2C1868,912.2,1883.1,905.6,1902.5,905.6z"/>
<path class="st0" d="M1002.8-0.2c1.2,0,2.4,0,3.6,0c26.2,0,47.3,10.1,66,28.2c18.9,19.7,26.3,43,26.1,69.9
	c-0.6,26.7-10.5,47.9-29.1,66.9c-2.4,2.2-4.8,4.2-7.3,6.3c-0.7,0.6-1.5,1.2-2.2,1.8c-21.6,16.5-48.5,19.5-74.8,16.4
	c-10.2-1.6-18.8-5-27.9-9.7c-0.7-0.4-1.4-0.7-2.2-1.1c-4.3-2.3-7.5-4.8-10.9-8.4c-0.8-0.5-1.6-0.9-2.4-1.4c-3-1.9-4.8-4.2-7.1-6.9
	c-1.6-1.9-1.6-1.9-4.2-3.8c-2.5-2.1-3.9-4-5.3-6.9c0-0.7,0-1.3,0-2c-0.7,0-1.3,0-2,0c-14.2-18.5-18.3-44.8-15.7-67.4
	c2.4-16,8.7-31.9,18.7-44.6c0.9-1.3,1.8-2.5,2.6-3.8c2.3-3,4.6-5.6,7.4-8.2c0.7-0.7,1.3-1.4,2-2.1c2.2-2,4.4-3.3,7-4.9
	c1.4-1.1,2.8-2.1,4.2-3.2c4.7-3.4,9.7-5.8,15-8.1c0.8-0.3,1.5-0.7,2.3-1C978.6,0.4,989.7-0.2,1002.8-0.2z"/>
<path class="st0" d="M92.8,905.6c2,0,4.1,0,6.1-0.1c13.6-0.1,25.6,3.3,37.9,9.1c0.9,0.4,1.7,0.8,2.6,1.2c3.4,1.6,6.5,3.1,9.6,5.2
	c0,0.7,0,1.3,0,2c0.6,0.3,1.1,0.5,1.7,0.8c18.6,9.5,28.8,29,36.3,47.6c2.8,9.9,3.3,19.8,3.3,30.1c0,1.1,0,2.2,0,3.4
	c-0.1,22.9-7.6,42.1-22.7,59.2c-1.9,2.2-3.8,4.4-5.6,6.8c-7.9,9.1-19.2,14.2-30,19.2c-0.9,0.4-1.8,0.9-2.8,1.3
	c-18.7,8.2-47.1,8.2-66.2,1c-19.2-8.4-35-19.3-47.5-36.5c-0.4-0.6-0.8-1.1-1.3-1.7c-2.7-3.8-4.6-7.7-6.3-12.1
	c-0.7-1.5-0.7-1.5-1.3-3.1c-8.8-20.7-10.3-47.9-2.6-69.3c2.2-5.2,4.5-10.3,7-15.4c0.3-0.7,0.7-1.4,1-2.1c2.5-5,2.5-5,5.9-6.1
	c1.1-1.8,1.1-1.8,2-4c2.3-4.4,5.2-6.9,9-10c0.7-0.9,1.4-1.7,2.1-2.6c2.1-2.6,4-3.9,6.9-5.4c0.7,0,1.3,0,2,0c0-0.7,0-1.3,0-2
	c5.4-4.3,12-7,18.4-9.7c0.7-0.3,1.3-0.6,2-0.9C71.1,907.1,81.3,905.5,92.8,905.6z"/>
</svg>
